<svg xmlns="http://www.w3.org/2000/svg" width="200" height="200"><path d="M 100 0 L 100 20" style="stroke:black;stroke-width:1px;fill:none" /><path d="M 140 0 L 140 20" style="stroke:black;stroke-width:1px;fill:none" /><path d="M 160 0 L 160 20" style="stroke:black;stroke-width:1px;fill:none" /><path d="M 180 0 L 180 20" style="stroke:black;stroke-width:1px;fill:none" /><path d="M 20 20 L 20 40" style="stroke:black;stroke-width:1px;fill:none" /><path d="M 40 20 L 40 40" style="stroke:black;stroke-width:1px;fill:none" /><path d="M 80 20 L 80 40" style="stroke:black;stroke-width:1px;fill:none" /><path d="M 100 20 L 100 40" style="stroke:black;stroke-width:1px;fill:none" /><path d="M 120 20 L 120 40" style="stroke:black;stroke-width:1px;fill:none" /><path d="M 20 40 L 20 60" style="stroke:black;stroke-width:1px;fill:none" /><path d="M 40 40 L 40 60" style="stroke:black;stroke-width:1px;fill:none" /><path d="M 100 40 L 100 60" style="stroke:black;stroke-width:1px;fill:none" /><path d="M 120 40 L 120 60" style="stroke:black;stroke-width:1px;fill:none" /><path d="M 160 40 L 160 60" style="stroke:black;stroke-width:1px;fill:none" /><path d="M 180 40 L 180 60" style="stroke:black;stroke-width:1px;fill:none" /><path d="M 40 60 L 40 80" style="stroke:black;stroke-width:1px;fill:none" /><path d="M 60 60 L 60 80" style="stroke:black;stroke-width:1px;fill:none" /><path d="M 80 60 L 80 80" style="stroke:black;stroke-width:1px;fill:none" /><path d="M 100 60 L 100 80" style="stroke:black;stroke-width:1px;fill:none" /><path d="M 160 60 L 160 80" style="stroke:black;stroke-width:1px;fill:none" /><path d="M 180 60 L 180 80" style="stroke:black;stroke-width:1px;fill:none" /><path d="M 20 80 L 20 100" style="stroke:black;stroke-width:1px;fill:none" /><path d="M 40 80 L 40 100" style="stroke:black;stroke-width:1px;fill:none" /><path d="M 20 100 L 20 120" style="stroke:black;stroke-width:1px;fill:none" /><path d="M 60 100 L 60 120" style="stroke:black;stroke-width:1px;fill:none" /><path d="M 120 100 L 120 120" style="stroke:black;stroke-width:1px;fill:none" /><path d="M 140 100 L 140 120" style="stroke:black;stroke-width:1px;fill:none" /><path d="M 40 120 L 40 140" style="stroke:black;stroke-width:1px;fill:none" /><path d="M 60 120 L 60 140" style="stroke:black;stroke-width:1px;fill:none" /><path d="M 80 120 L 80 140" style="stroke:black;stroke-width:1px;fill:none" /><path d="M 100 120 L 100 140" style="stroke:black;stroke-width:1px;fill:none" /><path d="M 60 140 L 60 160" style="stroke:black;stroke-width:1px;fill:none" /><path d="M 100 140 L 100 160" style="stroke:black;stroke-width:1px;fill:none" /><path d="M 140 140 L 140 160" style="stroke:black;stroke-width:1px;fill:none" /><path d="M 160 140 L 160 160" style="stroke:black;stroke-width:1px;fill:none" /><path d="M 40 160 L 40 180" style="stroke:black;stroke-width:1px;fill:none" /><path d="M 80 160 L 80 180" style="stroke:black;stroke-width:1px;fill:none" /><path d="M 100 160 L 100 180" style="stroke:black;stroke-width:1px;fill:none" /><path d="M 140 160 L 140 180" style="stroke:black;stroke-width:1px;fill:none" /><path d="M 160 160 L 160 180" style="stroke:black;stroke-width:1px;fill:none" /><path d="M 40 180 L 40 200" style="stroke:black;stroke-width:1px;fill:none" /><path d="M 60 180 L 60 200" style="stroke:black;stroke-width:1px;fill:none" /><path d="M 100 180 L 100 200" style="stroke:black;stroke-width:1px;fill:none" /><path d="M 160 180 L 160 200" style="stroke:black;stroke-width:1px;fill:none" /><path d="M 20 20 L 40 20" style="stroke:black;stroke-width:1px;fill:none" /><path d="M 60 20 L 80 20" style="stroke:black;stroke-width:1px;fill:none" /><path d="M 120 20 L 140 20" style="stroke:black;stroke-width:1px;fill:none" /><path d="M 40 40 L 60 40" style="stroke:black;stroke-width:1px;fill:none" /><path d="M 80 40 L 100 40" style="stroke:black;stroke-width:1px;fill:none" /><path d="M 140 40 L 160 40" style="stroke:black;stroke-width:1px;fill:none" /><path d="M 160 40 L 180 40" style="stroke:black;stroke-width:1px;fill:none" /><path d="M 120 60 L 140 60" style="stroke:black;stroke-width:1px;fill:none" /><path d="M 180 60 L 200 60" style="stroke:black;stroke-width:1px;fill:none" /><path d="M 20 80 L 40 80" style="stroke:black;stroke-width:1px;fill:none" /><path d="M 40 80 L 60 80" style="stroke:black;stroke-width:1px;fill:none" /><path d="M 60 80 L 80 80" style="stroke:black;stroke-width:1px;fill:none" /><path d="M 120 80 L 140 80" style="stroke:black;stroke-width:1px;fill:none" /><path d="M 140 80 L 160 80" style="stroke:black;stroke-width:1px;fill:none" /><path d="M 80 100 L 100 100" style="stroke:black;stroke-width:1px;fill:none" /><path d="M 100 100 L 120 100" style="stroke:black;stroke-width:1px;fill:none" /><path d="M 160 100 L 180 100" style="stroke:black;stroke-width:1px;fill:none" /><path d="M 180 100 L 200 100" style="stroke:black;stroke-width:1px;fill:none" /><path d="M 0 120 L 20 120" style="stroke:black;stroke-width:1px;fill:none" /><path d="M 40 120 L 60 120" style="stroke:black;stroke-width:1px;fill:none" /><path d="M 120 120 L 140 120" style="stroke:black;stroke-width:1px;fill:none" /><path d="M 140 120 L 160 120" style="stroke:black;stroke-width:1px;fill:none" /><path d="M 160 120 L 180 120" style="stroke:black;stroke-width:1px;fill:none" /><path d="M 180 120 L 200 120" style="stroke:black;stroke-width:1px;fill:none" /><path d="M 0 140 L 20 140" style="stroke:black;stroke-width:1px;fill:none" /><path d="M 20 140 L 40 140" style="stroke:black;stroke-width:1px;fill:none" /><path d="M 60 140 L 80 140" style="stroke:black;stroke-width:1px;fill:none" /><path d="M 120 140 L 140 140" style="stroke:black;stroke-width:1px;fill:none" /><path d="M 140 140 L 160 140" style="stroke:black;stroke-width:1px;fill:none" /><path d="M 160 140 L 180 140" style="stroke:black;stroke-width:1px;fill:none" /><path d="M 20 160 L 40 160" style="stroke:black;stroke-width:1px;fill:none" /><path d="M 120 160 L 140 160" style="stroke:black;stroke-width:1px;fill:none" /><path d="M 180 160 L 200 160" style="stroke:black;stroke-width:1px;fill:none" /><path d="M 20 180 L 40 180" style="stroke:black;stroke-width:1px;fill:none" /><path d="M 80 180 L 100 180" style="stroke:black;stroke-width:1px;fill:none" /><path d="M 120 180 L 140 180" style="stroke:black;stroke-width:1px;fill:none" /><path d="M 180 180 L 200 180" style="stroke:black;stroke-width:1px;fill:none" /><path d="M 0 0 L 0 200" style="stroke:black;stroke-width:1px;fill:none" /><path d="M 0 0 L 180 0" style="stroke:black;stroke-width:1px;fill:none" /><path d="M 200 0 L 200 200" style="stroke:black;stroke-width:1px;fill:none" /><path d="M 20 200 L 200 200" style="stroke:black;stroke-width:1px;fill:none" /></svg>
